<?xml version="1.0" encoding="UTF-8" standalone="no"?>
<!-- Created with Inkscape (http://www.inkscape.org/) -->

<svg
   width="16mm"
   height="16mm"
   viewBox="0 0 16 16"
   version="1.1"
   id="svg1"
   sodipodi:docname="wait_for_time.svg"
   inkscape:version="1.4.4 (dcaf3e7d9e, 2026-05-05)"
   xmlns:inkscape="http://www.inkscape.org/namespaces/inkscape"
   xmlns:sodipodi="http://sodipodi.sourceforge.net/DTD/sodipodi-0.dtd"
   xmlns="http://www.w3.org/2000/svg"
   xmlns:svg="http://www.w3.org/2000/svg">
  <sodipodi:namedview
     id="namedview1"
     pagecolor="#000000"
     bordercolor="#000000"
     borderopacity="0.25"
     inkscape:showpageshadow="2"
     inkscape:pageopacity="0.0"
     inkscape:pagecheckerboard="0"
     inkscape:deskcolor="#d1d1d1"
     inkscape:document-units="mm"
     inkscape:zoom="13.281319"
     inkscape:cx="36.47981"
     inkscape:cy="26.616332"
     inkscape:window-width="2412"
     inkscape:window-height="1366"
     inkscape:window-x="0"
     inkscape:window-y="0"
     inkscape:window-maximized="0"
     inkscape:current-layer="layer1" />
  <defs
     id="defs1" />
  <g
     inkscape:label="Layer 1"
     inkscape:groupmode="layer"
     id="layer1">
    <path
       id="path1"
       style="fill:#ffff00;stroke-width:0.198438"
       d="M 8.0000285 1.9998779 A 6 6 0 0 0 1.9998779 8.0000285 A 6 6 0 0 0 8.0000285 14.000179 A 6 6 0 0 0 14.000179 8.0000285 A 6 6 0 0 0 8.0000285 1.9998779 z M 8.0000285 3.9997559 A 4 4 0 0 1 11.999784 8.0000285 A 4 4 0 0 1 8.0000285 11.999784 A 4 4 0 0 1 3.9997559 8.0000285 A 4 4 0 0 1 8.0000285 3.9997559 z " />
    <rect
       style="fill:#ffff00;stroke-width:0.25156"
       id="rect1"
       width="1.8"
       height="4.2034297"
       x="6.8727851"
       y="4.7213869"
       rx="1"
       ry="1" />
    <rect
       style="fill:#ffff00;stroke-width:0.25156"
       id="rect1-1"
       width="1.8"
       height="4.2034297"
       x="-1.0924999"
       y="10.278993"
       rx="1"
       ry="1"
       transform="rotate(-45)"
       inkscape:transform-center-x="0.71717274"
       inkscape:transform-center-y="0.81678007" />
  </g>
</svg>
